<?xml version="1.0" encoding="iso-8859-1"?>
<!-- Generator: Adobe Illustrator 21.1.0, SVG Export Plug-In . SVG Version: 6.00 Build 0)  -->
<svg version="1.1" id="Layer_1" xmlns="http://www.w3.org/2000/svg" xmlns:xlink="http://www.w3.org/1999/xlink" x="0px" y="0px"
	 viewBox="0 0 628.711 58.112" style="enable-background:new 0 0 628.711 58.112;" xml:space="preserve">
<g>
	<g>
		<path d="M151.057,39.979L0,37.979l151.057-2c1.105-0.015,2.012,0.869,2.026,1.974s-0.869,2.012-1.974,2.026
			C151.096,39.98,151.072,39.98,151.057,39.979z"/>
	</g>
	<g>
		<path d="M477.654,35.98l151.057,2l-151.057,2c-1.105,0.015-2.012-0.869-2.026-1.974s0.869-2.012,1.974-2.026
			C477.615,35.98,477.639,35.98,477.654,35.98z"/>
	</g>
	<path style="fill:none;stroke:#000000;stroke-width:4;stroke-linecap:round;stroke-miterlimit:10;" d="M151.057,37.979
		l88.978,0.004c1.061,0,2.078-0.421,2.829-1.172l11.523-11.523c1.562-1.562,4.095-1.562,5.657,0l29.652,29.652
		c1.562,1.562,4.095,1.562,5.657,0l14.843-14.843c1.562-1.562,1.562-4.095,0-5.657l-9.478-9.478c-1.562-1.562-4.095-1.562-5.657,0
		l-8.843,8.843c-1.562,1.562-1.562,4.095,0,5.657l2.644,2.644c1.562,1.562,4.095,1.562,5.657,0l2.832-2.832
		c1.562-1.562,1.562-4.095,0-5.657l-9.441-9.441l-6.508-6.508c-1.562-1.562-4.095-1.562-5.657,0l-11.66,11.66l-6.554,6.554
		c-1.57,1.57-1.561,4.119,0.021,5.678l1.435,1.414c1.565,1.543,4.082,1.533,5.636-0.021l27.757-27.757l12.026-12.026
		c1.562-1.562,4.095-1.562,5.657,0l10.834,10.834c1.562,1.562,1.562,4.095,0,5.657l-6.542,6.542l-6.542-6.542
		c-1.562-1.562-1.562-4.095,0-5.657l10.834-10.834c1.562-1.562,4.095-1.562,5.657,0l12.026,12.026l27.757,27.757
		c1.554,1.554,4.071,1.563,5.636,0.021l1.435-1.414c1.582-1.559,1.591-4.107,0.021-5.678l-6.554-6.554l-11.66-11.66
		c-1.562-1.562-4.095-1.562-5.657,0l-6.508,6.508l-9.441,9.441c-1.562,1.562-1.562,4.095,0,5.657l2.832,2.832
		c1.562,1.562,4.095,1.562,5.657,0l2.644-2.644c1.562-1.562,1.562-4.095,0-5.657l-8.843-8.843c-1.562-1.562-4.095-1.562-5.657,0
		l-9.478,9.478c-1.562,1.562-1.562,4.095,0,5.657l14.843,14.843c1.562,1.562,4.095,1.562,5.657,0l29.652-29.652
		c1.562-1.562,4.095-1.562,5.657,0l11.523,11.523c0.75,0.75,1.768,1.172,2.829,1.172l88.978-0.004"/>
</g>
</svg>
